[Header]
FileType HTR
DataType HTRS
FileVersion 1
NumSegments 64
NumFrames 2
DataFrameRate 24
EulerRotationOrder ZYX
CalibrationUnits mm
RotationUnits Degrees
GlobalAxisofGravity Y
BoneLengthAxis Y
ScaleFactor 1.0
[SegmentNames&Hierarchy]
Hips	GLOBAL
Spine	Hips
Spine1	Spine
Spine2	Spine1
Neck	Spine2
Head	Neck
LeftEye	Head
RightEye	Head
LeftShoulder	Spine2
LeftArm	LeftShoulder
LeftForeArm	LeftArm
LeftHand	LeftForeArm
LeftHandThumb1	LeftHand
LeftHandThumb2	LeftHandThumb1
LeftHandThumb3	LeftHandThumb2
LeftHandThumb4	LeftHandThumb3
LeftHandIndex1	LeftHand
LeftHandIndex2	LeftHandIndex1
LeftHandIndex3	LeftHandIndex2
LeftHandIndex4	LeftHandIndex3
LeftHandMiddle1	LeftHand
LeftHandMiddle2	LeftHandMiddle1
LeftHandMiddle3	LeftHandMiddle2
LeftHandMiddle4	LeftHandMiddle3
LeftHandRing1	LeftHand
LeftHandRing2	LeftHandRing1
LeftHandRing3	LeftHandRing2
LeftHandRing4	LeftHandRing3
LeftHandPinky1	LeftHand
LeftHandPinky2	LeftHandPinky1
LeftHandPinky3	LeftHandPinky2
LeftHandPinky4	LeftHandPinky3
RightShoulder	Spine2
RightArm	RightShoulder
RightForeArm	RightArm
RightHand	RightForeArm
RightHandPinky1	RightHand
RightHandPinky2	RightHandPinky1
RightHandPinky3	RightHandPinky2
RightHandPinky4	RightHandPinky3
RightHandRing1	RightHand
RightHandRing2	RightHandRing1
RightHandRing3	RightHandRing2
RightHandRing4	RightHandRing3
RightHandMiddle1	RightHand
RightHandMiddle2	RightHandMiddle1
RightHandMiddle3	RightHandMiddle2
RightHandMiddle4	RightHandMiddle3
RightHandIndex1	RightHand
RightHandIndex2	RightHandIndex1
RightHandIndex3	RightHandIndex2
RightHandIndex4	RightHandIndex3
RightHandThumb1	RightHand
RightHandThumb2	RightHandThumb1
RightHandThumb3	RightHandThumb2
RightHandThumb4	RightHandThumb3
LeftUpLeg	Hips
LeftLeg	LeftUpLeg
LeftFoot	LeftLeg
LeftToeBase	LeftFoot
RightUpLeg	Hips
RightLeg	RightUpLeg
RightFoot	RightLeg
RightToeBase	RightFoot
[BasePosition]
Hips	0	0	0	0	0	0	1
Spine	0	0	0	0	0	0	1
Spine1	0	0	0	0	0	0	1
Spine2	0	0	0	0	0	0	1
Neck	0	0	0	0	0	0	1
Head	0	0	0	0	0	0	1
LeftEye	0	0	0	0	0	0	1
RightEye	0	0	0	0	0	0	1
LeftShoulder	0	0	0	0	0	0	1
LeftArm	0	0	0	0	0	0	1
LeftForeArm	0	0	0	0	0	0	1
LeftHand	0	0	0	0	0	0	1
LeftHandThumb1	0	0	0	0	0	0	1
LeftHandThumb2	0	0	0	0	0	0	1
LeftHandThumb3	0	0	0	0	0	0	1
LeftHandThumb4	0	0	0	0	0	0	1
LeftHandIndex1	0	0	0	0	0	0	1
LeftHandIndex2	0	0	0	0	0	0	1
LeftHandIndex3	0	0	0	0	0	0	1
LeftHandIndex4	0	0	0	0	0	0	1
LeftHandMiddle1	0	0	0	0	0	0	1
LeftHandMiddle2	0	0	0	0	0	0	1
LeftHandMiddle3	0	0	0	0	0	0	1
LeftHandMiddle4	0	0	0	0	0	0	1
LeftHandRing1	0	0	0	0	0	0	1
LeftHandRing2	0	0	0	0	0	0	1
LeftHandRing3	0	0	0	0	0	0	1
LeftHandRing4	0	0	0	0	0	0	1
LeftHandPinky1	0	0	0	0	0	0	1
LeftHandPinky2	0	0	0	0	0	0	1
LeftHandPinky3	0	0	0	0	0	0	1
LeftHandPinky4	0	0	0	0	0	0	1
RightShoulder	0	0	0	0	0	0	1
RightArm	0	0	0	0	0	0	1
RightForeArm	0	0	0	0	0	0	1
RightHand	0	0	0	0	0	0	1
RightHandPinky1	0	0	0	0	0	0	1
RightHandPinky2	0	0	0	0	0	0	1
RightHandPinky3	0	0	0	0	0	0	1
RightHandPinky4	0	0	0	0	0	0	1
RightHandRing1	0	0	0	0	0	0	1
RightHandRing2	0	0	0	0	0	0	1
RightHandRing3	0	0	0	0	0	0	1
RightHandRing4	0	0	0	0	0	0	1
RightHandMiddle1	0	0	0	0	0	0	1
RightHandMiddle2	0	0	0	0	0	0	1
RightHandMiddle3	0	0	0	0	0	0	1
RightHandMiddle4	0	0	0	0	0	0	1
RightHandIndex1	0	0	0	0	0	0	1
RightHandIndex2	0	0	0	0	0	0	1
RightHandIndex3	0	0	0	0	0	0	1
RightHandIndex4	0	0	0	0	0	0	1
RightHandThumb1	0	0	0	0	0	0	1
RightHandThumb2	0	0	0	0	0	0	1
RightHandThumb3	0	0	0	0	0	0	1
RightHandThumb4	0	0	0	0	0	0	1
LeftUpLeg	0	0	0	0	0	0	1
LeftLeg	0	0	0	0	0	0	1
LeftFoot	0	0	0	0	0	0	1
LeftToeBase	0	0	0	0	0	0	1
RightUpLeg	0	0	0	0	0	0	1
RightLeg	0	0	0	0	0	0	1
RightFoot	0	0	0	0	0	0	1
RightToeBase	0	0	0	0	0	0	1
[Hips]
1	-16.20617104	1006.175781	8.907237053	5.976072311	-66.17047882	-1.371183634	1.0
2	-86.19972229	1006.616882	12.18775749	4.902080059	-68.75177002	0.4631818533	1.0
[Spine]
1	0	101.8159943	1.315000057	5.902020454	7.369257927	0.4427935481	1.0
2	0	101.8159943	1.315000057	5.580287457	9.296982765	-0.5185653567	1.0
[Spine1]
1	0	100.8349991	-10.00800037	4.187679291	4.767701626	-0.05873264372	1.0
2	0	100.8349991	-10.00800037	3.948433876	5.271564007	-0.5892857909	1.0
[Spine2]
1	0	91	-13.73399925	4.162635326	4.792510509	-0.03908357024	1.0
2	0	91	-13.73399925	3.903510332	5.30895853	-0.580211997	1.0
[Neck]
1	0	166.7169952	-25.16200066	4.956516743	5.420538425	2.367131948	1.0
2	0	166.7169952	-25.16200066	4.979245186	5.426871777	2.242892027	1.0
[Head]
1	0	96.17900085	16.84999847	-11.11157417	33.89736938	-12.34868813	1.0
2	0	96.17900085	16.84999847	-10.89078808	33.83733368	-11.96196938	1.0
[LeftEye]
1	30.6760006	64.09500122	92.83599854	0	0	0	1.0
2	30.6760006	64.09500122	92.83599854	0	0	0	1.0
[RightEye]
1	-30.6760006	64.09500122	92.83499908	0	0	0	1.0
2	-30.6760006	64.09500122	92.83499908	0	0	0	1.0
[LeftShoulder]
1	45.70400238	109.4599991	-26.28000069	1.008496642	2.197287321	-7.514518261	1.0
2	45.70400238	109.4599991	-26.28000069	1.205356717	3.938086987	-7.389314651	1.0
[LeftArm]
1	105.923996	-5.24600029	-22.32099915	17.76802444	-9.122008324	-68.93611145	1.0
2	105.923996	-5.24600029	-22.32099915	17.72891998	-6.189503193	-67.45397186	1.0
[LeftForeArm]
1	278.414978	-0.0009999999311	0	-8.346751201e-06	-29.22143364	-0.0002067977184	1.0
2	278.414978	-0.0009999999311	0	5.401389444e-06	-25.56042671	-0.0001943214302	1.0
[LeftHand]
1	283.2879944	0	0	4.552804947	-14.46043015	4.857767582	1.0
2	283.2879944	0	0	4.56047821	-9.317304611	3.94357276	1.0
[LeftHandThumb1]
1	24.6609993	-15.75	26.8239994	30.58115005	-20.32058144	11.29641056	1.0
2	24.6609993	-15.75	26.8239994	30.58115005	-20.32058144	11.29641056	1.0
[LeftHandThumb2]
1	32.29800034	-18.64699936	18.64699936	9.137365341	22.86057854	-1.032785296	1.0
2	32.29800034	-18.64699936	18.64699936	10.00291443	23.10540009	-1.253044009	1.0
[LeftHandThumb3]
1	26.52600098	-15.31499958	15.31499958	-14.99386978	8.381422043	9.92784977	1.0
2	26.52600098	-15.31499958	15.31499958	-15.01955891	8.321162224	9.946023941	1.0
[LeftHandThumb4]
1	19.54599953	-11.28499985	11.28499985	0	0	0	1.0
2	19.54599953	-11.28499985	11.28499985	0	0	0	1.0
[LeftHandIndex1]
1	91.09299469	-5.170999527	22.60099792	-0.9252451062	-6.020177364	-19.70661545	1.0
2	91.09299469	-5.170999527	22.60099792	-1.015379786	-5.869190216	-20.95527077	1.0
[LeftHandIndex2]
1	36.76399994	0	0	-0.7272897959	2.822316647	-28.89583588	1.0
2	36.76399994	0	0	-0.7268083096	2.82141304	-28.88578987	1.0
[LeftHandIndex3]
1	28.83100128	0	0	-0.3020690382	1.854360342	-18.50255966	1.0
2	28.83100128	0	0	-0.3017371297	1.853381872	-18.49244308	1.0
[LeftHandIndex4]
1	23.92700005	0	0	0	0	0	1.0
2	23.92700005	0	0	0	0	0	1.0
[LeftHandMiddle1]
1	95.33399963	0	0	-2.349571943	2.085986376	-35.01323318	1.0
2	95.33399963	0	0	-2.393224716	2.136099815	-35.48204803	1.0
[LeftHandMiddle2]
1	36.98199844	0	0	-0.5765954256	2.530424595	-25.66919327	1.0
2	36.98199844	0	0	-0.5809301138	2.539405823	-25.76722527	1.0
[LeftHandMiddle3]
1	29.50900078	0	0	-0.4058109224	2.139384985	-21.4792366	1.0
2	29.50900078	0	0	-0.4095169902	2.148774862	-21.57831192	1.0
[LeftHandMiddle4]
1	28.3390007	0	0	0	0	0	1.0
2	28.3390007	0	0	0	0	0	1.0
[LeftHandRing1]
1	91.04499817	-0.4390000105	-18.65100098	-2.094944239	3.785854816	-32.16821671	1.0
2	91.04499817	-0.4390000105	-18.65100098	-2.143189192	3.648603916	-32.70771027	1.0
[LeftHandRing2]
1	31.54000092	0	0	-0.8769783378	3.077598095	-31.80373955	1.0
2	31.54000092	0	0	-0.8754481673	3.075135946	-31.77509689	1.0
[LeftHandRing3]
1	29.37700081	0	0	-0.974750042	3.22971034	-33.5807724	1.0
2	29.37700081	0	0	-0.9731035829	3.22723794	-33.5516777	1.0
[LeftHandRing4]
1	26.47500038	0	0	0	0	0	1.0
2	26.47500038	0	0	0	0	0	1.0
[LeftHandPinky1]
1	80.77799988	-4.887000084	-38.06099701	-1.777747512	4.465471745	-28.34558296	1.0
2	80.77799988	-4.887000084	-38.06099701	-1.789774179	4.095756054	-28.4893322	1.0
[LeftHandPinky2]
1	36	0	0	-0.4588910341	2.269582987	-22.85943413	1.0
2	36	0	0	-0.4592920244	2.270486116	-22.86914444	1.0
[LeftHandPinky3]
1	21.14200211	0	0	-0.5245802999	2.4193151	-24.46465683	1.0
2	21.14200211	0	0	-0.5250090361	2.420238256	-24.47458649	1.0
[LeftHandPinky4]
1	19.75699997	0	0	0	0	0	1.0
2	19.75699997	0	0	0	0	0	1.0
[RightShoulder]
1	-45.70000076	109.4620056	-26.28000069	-1.554427624	7.006838322	9.518121719	1.0
2	-45.70000076	109.4620056	-26.28000069	-2.309520245	7.678538322	9.191664696	1.0
[RightArm]
1	-105.9280014	-5.248000145	-22.32099915	26.83447266	16.89645576	60.02413559	1.0
2	-105.9280014	-5.248000145	-22.32099915	26.72007751	18.99227715	58.78360748	1.0
[RightForeArm]
1	-278.414978	0	0	2.922679414e-06	12.60196114	1.105763567e-05	1.0
2	-278.414978	0	0	3.013387868e-07	15.79038334	8.105645065e-06	1.0
[RightHand]
1	-283.2879944	0	0.0009999999311	6.657670975	-2.354956865	-21.21051025	1.0
2	-283.2879944	0	0.0009999999311	4.065890789	-1.655073285	-22.2052803	1.0
[RightHandPinky1]
1	-80.76699829	-4.885000229	-38.06000137	-2.194121599	-4.702302456	35.98807907	1.0
2	-80.76699829	-4.885000229	-38.06000137	-2.146417856	-4.291448593	35.51136398	1.0
[RightHandPinky2]
1	-36	0	0.0009999999311	-0.404322207	-1.894058943	24.11747932	1.0
2	-36	0	0.0009999999311	-0.4059796035	-1.897762418	24.16763496	1.0
[RightHandPinky3]
1	-21.14200211	0	0	-0.1790079772	-1.276326537	15.96669292	1.0
2	-21.14200211	0	0	-0.1802044809	-1.280509114	16.02043915	1.0
[RightHandPinky4]
1	-19.75699997	0	0	0	0	0	1.0
2	-19.75699997	0	0	0	0	0	1.0
[RightHandRing1]
1	-91.03599548	-0.4390000105	-18.65100098	-1.940166712	-6.878499985	32.92232895	1.0
2	-91.03599548	-0.4390000105	-18.65100098	-1.87473309	-6.7439394	32.07527924	1.0
[RightHandRing2]
1	-31.54000092	0	0	-0.3774883449	-1.832921863	23.27267838	1.0
2	-31.54000092	0	0	-0.3790979981	-1.836658001	23.32298279	1.0
[RightHandRing3]
1	-29.37700081	0	0	-0.2718664706	-1.564792275	19.7111187	1.0
2	-29.37700081	0	0	-0.2732744515	-1.568714261	19.7626133	1.0
[RightHandRing4]
1	-26.47500038	0	0	0	0	0	1.0
2	-26.47500038	0	0	0	0	0	1.0
[RightHandMiddle1]
1	-95.32500458	0	0	-1.768753886	-2.842730522	30.67187881	1.0
2	-95.32500458	0	0	-1.712592483	-2.403204918	29.93688393	1.0
[RightHandMiddle2]
1	-36.98199844	0	0	-0.2417194396	-1.477980971	18.57572365	1.0
2	-36.98199844	0	0	-0.2405009568	-1.474344969	18.52835083	1.0
[RightHandMiddle3]
1	-29.50900078	0	0	-0.08714080602	-0.8970590234	11.12124443	1.0
2	-29.50900078	0	0	-0.08640093356	-0.8932912946	11.07382011	1.0
[RightHandMiddle4]
1	-28.3390007	0	0.0009999999311	0	0	0	1.0
2	-28.3390007	0	0.0009999999311	0	0	0	1.0
[RightHandIndex1]
1	-91.08300018	-5.167999744	22.60099792	-1.279144406	1.919730902	24.30706406	1.0
2	-91.08300018	-5.167999744	22.60099792	-1.204530001	2.469734192	23.15696907	1.0
[RightHandIndex2]
1	-36.76399994	0	0	-0.1022019237	-0.9685074687	12.04746151	1.0
2	-36.76399994	0	0	-0.1017401367	-0.9663456678	12.02012062	1.0
[RightHandIndex3]
1	-28.83100128	0	0	-0.1063379645	-0.9876869321	12.28976536	1.0
2	-28.83100128	0	0	-0.1058699861	-0.9855215549	12.26242733	1.0
[RightHandIndex4]
1	-23.92700005	0	0	0	0	0	1.0
2	-23.92700005	0	0	0	0	0	1.0
[RightHandThumb1]
1	-24.64799881	-15.72700024	26.82600021	-0.1902875453	0.8218618631	0.3671384752	1.0
2	-24.64799881	-15.72700024	26.82600021	-0.1902875453	0.8218618631	0.3671384752	1.0
[RightHandThumb2]
1	-32.29800034	-18.64699936	18.64699936	17.07000542	-5.097047806	-19.83496857	1.0
2	-32.29800034	-18.64699936	18.64699936	15.35935497	-5.378290653	-20.24481201	1.0
[RightHandThumb3]
1	-26.52600098	-15.31399918	15.31399918	-0.001295722206	7.497717381	-24.17388725	1.0
2	-26.52600098	-15.31399918	15.31399918	0.5384790301	6.253834724	-23.88295364	1.0
[RightHandThumb4]
1	-19.54599953	-11.28499985	11.28499985	0	0	0	1.0
2	-19.54599953	-11.28499985	11.28499985	0	0	0	1.0
[LeftUpLeg]
1	82.07800293	-67.51699829	-15.99599934	-34.30179977	0.8594329953	2.953464985	1.0
2	82.07800293	-67.51699829	-15.99599934	-36.56529617	0.8376078606	-1.073515058	1.0
[LeftLeg]
1	0	-443.7049866	2.845999956	55.93058395	-1.879598498	-2.690618753	1.0
2	0	-443.7049866	2.845999956	39.76456833	-0.7669709921	-0.4794374704	1.0
[LeftFoot]
1	0	-444.2789917	-29.8219986	-2.921836376	-0.05820997432	-4.022259235	1.0
2	0	-444.2789917	-29.8219986	-4.354757786	-0.08125124872	-5.51164484	1.0
[LeftToeBase]
1	0	-87.28699493	107.1060028	-7.57341671	2.050513649e-05	1.627002803e-06	1.0
2	0	-87.28699493	107.1060028	-6.94396019	-2.488485734e-05	2.828929155e-06	1.0
[RightUpLeg]
1	-82.07800293	-67.51699829	-15.99599934	-16.60586548	-6.352248669	5.205080509	1.0
2	-82.07800293	-67.51699829	-15.99599934	-11.08777618	-6.512574673	5.222761154	1.0
[RightLeg]
1	0	-443.7049866	2.861999989	26.34446526	1.8657161	1.277224064	1.0
2	0	-443.7049866	2.861999989	22.79548645	3.67518568	2.027774096	1.0
[RightFoot]
1	0	-444.2770081	-29.83799934	-14.71732616	-0.6957345009	-4.948014259	1.0
2	0	-444.2770081	-29.83799934	-17.08639717	-0.4048124254	-6.79254818	1.0
[RightToeBase]
1	0	-87.28699493	107.1060028	-8.080937386	1.125156086e-05	-2.779465831e-06	1.0
2	0	-87.28699493	107.1060028	-7.491325855	-2.686889638e-05	1.37875827e-06	1.0
[EndOfFile]
